<svg id="Layer_1" data-name="Layer 1" xmlns="http://www.w3.org/2000/svg" viewBox="0 0 291.12 75.36"><defs><style>.cls-1{font-size:60px;fill:#231f20;font-family:ScriptoramaJF-Tradeshow, ScriptoramaJF;}.cls-2{letter-spacing:-0.03em;}.cls-3{stroke:#000;stroke-miterlimit:10;stroke-width:2px;}</style></defs><title>NolaBooksLogoBlack</title><text class="cls-1" transform="translate(0 56.22) scale(0.98 1)">No<tspan class="cls-2" x="70.68" y="0">l</tspan><tspan x="86.64" y="0">aBooks</tspan></text><path class="cls-3" d="M290.42,27.16c2-.59,3.92-.63,5.58.86a8.6,8.6,0,0,1,1.31,1.57q7.62,11.4,15.22,22.82c.14.21.39.43.38.64a2.87,2.87,0,0,1-.32,1.52,1.05,1.05,0,0,1-1.63,0,5.06,5.06,0,0,1-.74-.92l-15.1-22.64c-1.26-1.9-2.55-2.15-4.47-.87L268.37,45c-1.91,1.27-2.15,2.55-.88,4.45q10.27,15.43,20.57,30.85c1.27,1.91,2.54,2.17,4.45.89L314.8,66.38c1.91-1.28,2.17-2.56.91-4.46-.4-.6-.82-1.19-1.2-1.81a1.3,1.3,0,0,1,.33-1.91,1.23,1.23,0,0,1,1.86.46c.5.75,1,1.49,1.5,2.25a5.14,5.14,0,0,1-.43,6.41,3.29,3.29,0,0,0-.28.44L292.77,84.25a1.93,1.93,0,0,0-.42,0,5,5,0,0,1-6.16-2q-10.67-15.93-21.28-31.9a4.51,4.51,0,0,1-.67-4,18.28,18.28,0,0,1,1.45-2.72Z" transform="translate(-29 -25.78)"/><path class="cls-3" d="M289.22,52.35l-8.39,5.59c-1.9,1.26-3.35,1-4.6-.89s-2.62-3.9-3.91-5.86a2.83,2.83,0,0,1,.81-4.32q8.69-5.82,17.41-11.6a2.83,2.83,0,0,1,4.29.9c1.36,2,2.7,4,4,6a2.83,2.83,0,0,1-.89,4.29C295.06,48.47,292.14,50.4,289.22,52.35Zm3.2-15-18,12,4.47,6.7L280,55.3l13.06-8.71c1.05-.7,2.13-1.38,3.14-2.13.22-.16.43-.73.32-.9C295.2,41.49,293.83,39.46,292.42,37.34Z" transform="translate(-29 -25.78)"/><path class="cls-3" d="M298.17,52.56a19.59,19.59,0,0,1,.24-2.15c.2-.78.84-1.23,1.55-.89a2.06,2.06,0,0,1,.93,1.44,4.8,4.8,0,0,1-.52,1.74l.24.42a14.53,14.53,0,0,1,1.62.07,1.25,1.25,0,0,1,1.2,1.58c-.18.92-.88,1.17-1.73,1-.53-.11-1-.29-1.83-.53a19,19,0,0,1-.21,2.1,1.17,1.17,0,0,1-1.44,1,1.2,1.2,0,0,1-1.09-1.47,18.93,18.93,0,0,1,.57-2.06,20.22,20.22,0,0,1-2-.23,1.23,1.23,0,0,1-1.05-1.6,1.19,1.19,0,0,1,1.55-.95C296.76,52.1,297.3,52.3,298.17,52.56Z" transform="translate(-29 -25.78)"/><path class="cls-3" d="M295.36,72c.38.58.71,1,1,1.53a1.17,1.17,0,0,1-.32,1.79,1.22,1.22,0,0,1-1.81-.32c-.36-.45-.64-1-1-1.55-.54.36-1,.7-1.48,1a1.29,1.29,0,0,1-1.91-.33,1.22,1.22,0,0,1,.47-1.85l1.46-1c-.37-.56-.7-1-1-1.5a1.24,1.24,0,0,1,.31-1.89,1.21,1.21,0,0,1,1.85.44l.06.09c1,1.34.95,1.32,2.34.5a1.83,1.83,0,0,1,1.18-.32c.38.11.9.54.94.88a2,2,0,0,1-.48,1.42A8,8,0,0,1,295.36,72Z" transform="translate(-29 -25.78)"/><path class="cls-3" d="M287.75,63c-.84.56-1.68,1.13-2.53,1.68a1.28,1.28,0,0,1-1.91-.28,1.26,1.26,0,0,1,.41-1.89c1.7-1.16,3.41-2.31,5.14-3.43a1.26,1.26,0,0,1,1.9.29c.55.8.22,1.44-.49,1.94S288.59,62.42,287.75,63Z" transform="translate(-29 -25.78)"/><path class="cls-3" d="M306.07,64.17l2.43-1.63a1.25,1.25,0,0,1,1.9.28,1.23,1.23,0,0,1-.41,1.87l-5.14,3.42a1.22,1.22,0,0,1-1.89-.27,1.25,1.25,0,0,1,.49-1.93Z" transform="translate(-29 -25.78)"/><path class="cls-3" d="M305.12,63c-.87.58-1.74,1.17-2.61,1.74a1.29,1.29,0,0,1-1.5-2.11q2.67-1.86,5.41-3.6a1.2,1.2,0,0,1,1.78.46,1.16,1.16,0,0,1-.38,1.7c-.89.61-1.8,1.2-2.7,1.8Z" transform="translate(-29 -25.78)"/></svg>