<?xml version="1.0" encoding="utf-8"?>
<!-- Generator: Adobe Illustrator 23.0.1, SVG Export Plug-In . SVG Version: 6.00 Build 0)  -->
<svg version="1.1" id="Layer_1" xmlns="http://www.w3.org/2000/svg" xmlns:xlink="http://www.w3.org/1999/xlink" x="0px" y="0px"
	 viewBox="0 0 288.1 82.5" style="enable-background:new 0 0 288.1 82.5;" xml:space="preserve">
<style type="text/css">
	.st0{font-family:'ScriptoramaJF-Tradeshow';}
	.st1{font-size:45.5225px;}
</style>
<title>NolaBooksLogoBlackText</title>
<text transform="matrix(0.98 0 0 1 12.7744 50.4429)" class="st0 st1">No</text>
<text transform="matrix(0.98 0 0 1 65.3271 50.4429)" class="st0 st1">l</text>
<text transform="matrix(0.98 0 0 1 77.1934 50.4429)" class="st0 st1">aBooks</text>
<path d="M223.7,8.5c2.1-0.2,4.1,0.1,5.5,1.9c0.4,0.6,0.8,1.2,1,1.8c3.7,8.7,7.4,17.4,11,26.1c0.1,0.2,0.3,0.5,0.3,0.7
	c-0.1,0.5-0.3,1.1-0.6,1.5c-0.5,0.4-1.1,0.3-1.5-0.1c0-0.1-0.1-0.1-0.1-0.2c-0.2-0.3-0.4-0.7-0.6-1.1l-11-25.9
	c-0.9-2.2-2.2-2.7-4.4-1.7l-25.4,10.8c-2.2,0.9-2.7,2.2-1.7,4.3c5,11.7,9.9,23.5,14.9,35.2c0.9,2.2,2.2,2.7,4.3,1.8L240.9,53
	c2.2-0.9,2.7-2.2,1.8-4.3c-0.3-0.7-0.6-1.4-0.9-2.1c-0.3-0.7-0.1-1.5,0.6-1.8c0,0,0.1,0,0.1-0.1c0.6-0.3,1.4-0.1,1.7,0.6
	c0,0.1,0.1,0.2,0.1,0.3c0.4,0.9,0.7,1.7,1.1,2.6c1,2.3,0.3,4.9-1.7,6.4c-0.1,0.1-0.3,0.3-0.4,0.4l-28.2,12c-0.1,0-0.3-0.1-0.4-0.1
	c-2.5,0.5-5-0.8-5.9-3.2c-5.2-12.1-10.3-24.3-15.4-36.4c-0.6-1.3-0.6-2.9,0.1-4.2c0.6-0.9,1.3-1.7,2-2.5L223.7,8.5z"/>
<path d="M217.7,33.8l-9.6,4.1c-2.2,0.9-3.6,0.4-4.5-1.8s-1.9-4.5-2.8-6.7c-0.8-1.4-0.3-3.2,1.1-4c0.2-0.1,0.4-0.2,0.6-0.2
	c6.6-2.8,13.2-5.6,19.9-8.4c1.4-0.8,3.2-0.2,4,1.2c0.1,0.2,0.2,0.4,0.2,0.5c1,2.3,2,4.6,2.9,6.9c0.8,1.4,0.2,3.2-1.2,4
	c-0.2,0.1-0.4,0.2-0.5,0.2C224.3,31,221,32.4,217.7,33.8z M223.8,19.2l-20.6,8.7l3.2,7.7l1.3-0.5l14.9-6.3c1.2-0.5,2.4-1,3.6-1.6
	c0.3-0.1,0.6-0.7,0.5-0.9C225.8,24,224.8,21.6,223.8,19.2L223.8,19.2z"/>
<path d="M226.7,35.8c0.2-0.7,0.4-1.4,0.7-2.1c0.4-0.8,1.1-1.1,1.7-0.6c0.4,0.4,0.7,1,0.7,1.6c-0.2,0.6-0.5,1.2-0.9,1.7l0.2,0.5
	c0.5,0.1,1.1,0.2,1.6,0.4c0.7,0.1,1.2,0.8,1,1.5c0,0.1-0.1,0.2-0.1,0.3c-0.4,0.9-1.1,1-1.9,0.7c-0.5-0.2-1-0.5-1.8-0.9
	c-0.2,0.7-0.4,1.4-0.6,2.1c-0.2,0.6-0.9,1-1.5,0.8c0,0-0.1,0-0.1-0.1c-0.7-0.2-1.1-0.8-0.9-1.5c0-0.1,0-0.1,0.1-0.2
	c0.3-0.7,0.6-1.3,1-2c-0.7-0.2-1.3-0.4-2-0.6c-0.7-0.2-1.1-0.9-0.9-1.6c0-0.1,0.1-0.2,0.1-0.2c0.2-0.6,0.9-1,1.6-0.7
	c0.1,0,0.1,0.1,0.2,0.1C225.4,35,225.9,35.3,226.7,35.8z"/>
<path d="M220.1,54.9c0.3,0.7,0.5,1.2,0.7,1.7c0.3,0.6,0.1,1.3-0.4,1.7c-0.1,0-0.2,0.1-0.2,0.1c-0.6,0.3-1.4,0.1-1.7-0.5
	c0-0.1-0.1-0.1-0.1-0.2c-0.3-0.5-0.5-1.1-0.7-1.8c-0.6,0.3-1.1,0.5-1.7,0.7c-0.6,0.3-1.5,0.1-1.8-0.5c0-0.1-0.1-0.1-0.1-0.2
	c-0.3-0.6-0.1-1.4,0.6-1.7c0.1,0,0.2-0.1,0.3-0.1l1.7-0.7c-0.3-0.6-0.5-1.1-0.7-1.7c-0.4-0.6-0.2-1.4,0.5-1.8c0.1,0,0.1-0.1,0.2-0.1
	c0.6-0.3,1.4-0.1,1.7,0.5c0,0.1,0.1,0.2,0.1,0.3v0.1c0.8,1.6,0.7,1.5,2.3,1c0.4-0.2,0.8-0.2,1.3-0.1c0.4,0.2,0.8,0.7,0.8,1.1
	c-0.1,0.5-0.3,1-0.8,1.3C221.4,54.5,220.8,54.7,220.1,54.9z"/>
<path d="M214.1,44.3c-1,0.4-1.9,0.8-2.9,1.2c-0.6,0.4-1.4,0.1-1.8-0.5c0-0.1-0.1-0.1-0.1-0.2c-0.3-0.6-0.1-1.4,0.6-1.8
	c0.1,0,0.1-0.1,0.2-0.1c1.9-0.8,3.9-1.7,5.9-2.5c0.6-0.4,1.4-0.2,1.8,0.5c0,0.1,0.1,0.1,0.1,0.2c0.4,0.9-0.1,1.5-0.9,1.9
	S215.1,43.9,214.1,44.3z"/>
<path d="M232.5,49l2.8-1.2c0.6-0.4,1.4-0.2,1.8,0.4c0,0.1,0.1,0.1,0.1,0.2c0.3,0.6,0.1,1.4-0.5,1.7c-0.1,0-0.2,0.1-0.3,0.1l-5.9,2.5
	c-0.6,0.4-1.4,0.2-1.7-0.4c-0.1-0.1-0.1-0.2-0.1-0.3c-0.3-0.6-0.1-1.4,0.5-1.7c0.1-0.1,0.2-0.1,0.3-0.1L232.5,49z"/>
<path d="M231.7,47.7c-1,0.4-2,0.9-3,1.3c-0.7,0.3-1.5,0-1.8-0.7s0-1.5,0.7-1.8c2-0.9,4.1-1.8,6.2-2.6c0.6-0.3,1.4,0,1.6,0.6
	c0,0.1,0.1,0.1,0.1,0.2c0.3,0.6,0,1.3-0.6,1.6c0,0-0.1,0-0.1,0.1C233.8,46.8,232.8,47.2,231.7,47.7L231.7,47.7z"/>
<g>
	<path d="M98.2,55.6c0.4,0,0.8,0,1.2,0c0.1,0,0.2,0.1,0.2,0.2c0.5,1.2,1,2.4,1.5,3.5c0.8,1.8,1.5,3.5,2.3,5.3c0,0.1,0.1,0.1,0.2,0.2
		c0-0.1,0-0.2,0-0.2c0-2.9,0-5.8,0-8.7c0-0.3,0.1-0.3,0.3-0.3c0.3,0,0.5,0,0.8,0c0.1,0,0.2,0,0.2,0.2c0,0.1,0,0.1,0,0.2
		c0,3.8,0,7.7,0,11.5c0,0.4,0,0.4-0.4,0.4c-0.3,0-0.7,0.1-0.9-0.1c-0.2-0.1-0.3-0.5-0.4-0.8c-1.2-2.7-2.4-5.4-3.5-8.2
		c0-0.1-0.1-0.2-0.2-0.2c0,3.1,0,6.2,0,9.2c-0.4,0-0.9,0-1.3,0C98.2,63.8,98.2,59.7,98.2,55.6z"/>
	<path d="M38.3,55.7c1.1,0,2.2,0,3.3,0c0.8,0,1.5,0.3,1.9,0.9c0.2,0.3,0.4,0.7,0.5,1.1c0.1,0.8,0.1,1.5,0,2.3c0,0.7-0.5,1.1-1.1,1.4
		c0,0-0.1,0-0.1,0c0,0,0,0,0,0.1c0.1,0.1,0.3,0.1,0.4,0.2c0.5,0.2,0.9,0.7,1,1.2c0.1,1.1,0.2,2.2,0,3.2c-0.2,0.9-0.8,1.4-1.7,1.6
		c-0.3,0.1-0.7,0.1-1,0.1c-1,0-2.1,0-3.1,0c0,0,0,0-0.1,0C38.3,63.8,38.3,59.7,38.3,55.7z M39.5,64.4c0,0.7,0,1.4,0,2.2
		c0,0.1,0,0.3,0.2,0.3c0.6,0,1.2,0,1.8,0c0.8,0,1.4-0.6,1.4-1.4c0-0.6,0-1.3,0-1.9c0-0.7-0.7-1.4-1.4-1.4c-0.6,0-1.2,0-1.7,0
		c-0.2,0-0.3,0.1-0.3,0.3C39.5,62.9,39.5,63.6,39.5,64.4z M39.5,58.9c0,0.6,0,1.3,0,1.9c0,0.2,0,0.3,0.2,0.3c0.4,0,0.9,0,1.3,0
		c1,0,1.7-0.7,1.7-1.7c0-0.3,0-0.6,0-0.9c0-1-0.6-1.6-1.6-1.6c-0.4,0-0.9,0-1.3,0c-0.2,0-0.3,0.1-0.3,0.3
		C39.6,57.7,39.5,58.3,39.5,58.9z"/>
	<path d="M57.6,55.7C57.6,55.6,57.6,55.6,57.6,55.7c1.2,0,2.4,0,3.5,0c0.7,0,1.4,0.3,1.9,0.9c0.3,0.4,0.5,0.8,0.5,1.3
		c0,2.4,0,4.9,0,7.3c0,0.6-0.1,1.2-0.5,1.7c-0.4,0.5-1,0.9-1.6,0.9c-1.3,0.1-2.6,0.1-3.9,0.1C57.6,63.8,57.6,59.7,57.6,55.7z
		 M58.9,61.7c0,1.6,0,3.1,0,4.7c0,0.3,0,0.3,0.3,0.3c0.5,0,1,0,1.5,0c1,0,1.6-0.6,1.6-1.6c0-2.2,0-4.4,0-6.7c0-1.1-0.6-1.7-1.7-1.7
		c-0.5,0-0.9,0-1.4,0c-0.3,0-0.3,0.1-0.3,0.3C58.9,58.6,58.9,60.2,58.9,61.7z"/>
	<path d="M201.2,67.9c-0.5,0-0.9,0-1.3,0c-0.1,0-0.2-0.1-0.2-0.2c-0.7-1.3-1.3-2.6-2-3.9c-0.1-0.2-0.2-0.2-0.4-0.2
		c-0.4,0-0.8,0-1.3,0c0,1.4,0,2.9,0,4.3c-0.4,0-0.9,0-1.3,0c0-4.1,0-8.1,0-12.2c0.2,0,0.3,0,0.5,0c0.9,0,1.9,0,2.8,0
		c0.8,0,1.4,0.3,1.9,0.9c0.3,0.4,0.5,0.9,0.5,1.4c0,1.1,0,2.2,0,3.3c0,0.9-0.5,1.6-1.4,2c-0.1,0-0.1,0.1-0.3,0.1
		C199.7,64.9,200.4,66.4,201.2,67.9z M196,59.6c0,0.9,0,1.7,0,2.6c0,0.2,0.1,0.3,0.3,0.3c0.5,0,1,0,1.5,0c1,0,1.5-0.5,1.5-1.5
		c0-0.9,0-1.8,0-2.6c0-1-0.6-1.5-1.6-1.5c-0.5,0-0.9,0-1.4,0c-0.2,0-0.3,0.1-0.3,0.3C196,57.9,196,58.7,196,59.6z"/>
	<path d="M114.6,59c-0.5,0-0.9,0-1.3,0c0-0.1,0-0.2,0-0.3c0-0.3,0-0.6,0-0.9c0-0.7-0.3-1.1-0.9-1.3c-0.6-0.2-1.2-0.2-1.8,0
		c-0.5,0.2-0.8,0.5-0.8,1.1c0,0.1,0,0.3,0,0.4c0,2.5,0,4.9,0,7.4c0,0.2,0,0.5,0.1,0.7c0.1,0.5,0.4,0.7,0.9,0.8
		c1.3,0.2,2.3-0.7,2.6-1.6c0-0.1,0-0.1,0-0.2c0-0.8,0-1.6,0-2.4c-0.1,0-0.2,0-0.3,0c-0.5,0-1.1,0-1.6,0c-0.2,0-0.2,0-0.2-0.2
		c0-0.2,0-0.5,0-0.7c0-0.1,0.1-0.2,0.2-0.2c1,0,2,0,3,0c0.2,0,0.2,0.1,0.2,0.2c0,1.9,0,3.9,0,5.8c0,0.1-0.1,0.2-0.1,0.2
		c-0.2,0-0.4,0.1-0.5-0.1c-0.1-0.2-0.2-0.4-0.3-0.6c-0.1-0.1-0.1-0.3-0.2-0.4c-0.2,0.3-0.4,0.5-0.6,0.7c-0.5,0.5-1,0.7-1.7,0.7
		c-0.5,0-0.9,0-1.4-0.2c-0.9-0.3-1.3-1-1.4-1.9c0-0.3-0.1-0.6-0.1-0.9c0-2.3,0-4.6,0-6.9c0-0.3,0-0.7,0.1-1c0.2-0.9,0.8-1.5,1.7-1.7
		c1-0.2,1.9-0.3,2.9,0.1c0.9,0.3,1.4,1,1.5,1.9C114.6,58,114.6,58.5,114.6,59z"/>
	<path d="M71.7,62.8c-0.6,0-1.2,0-1.8,0c-0.2,0-0.3,0-0.3-0.3c0-0.2,0-0.4,0-0.7c0-0.1,0.1-0.2,0.2-0.2c1,0,2,0,3,0
		c0.2,0,0.2,0.1,0.2,0.2c0,1.1,0,2.1,0,3.2c0,0.8,0,1.7,0,2.5c0,0.1-0.1,0.3-0.1,0.3c-0.2,0-0.4,0.1-0.5-0.2c-0.1-0.3-0.3-0.6-0.4-1
		c-0.2,0.3-0.4,0.5-0.6,0.7c-0.5,0.5-1,0.7-1.7,0.7c-0.5,0-1,0-1.5-0.2c-0.8-0.3-1.2-1-1.3-1.8c0-0.4-0.1-0.7-0.1-1.1
		c0-2.3,0-4.6,0-6.9c0-0.3,0-0.6,0.1-0.9c0.2-0.9,0.8-1.5,1.7-1.7c1-0.3,2-0.3,2.9,0.1c0.8,0.3,1.3,1,1.4,1.9c0,0.5,0.1,1,0.1,1.5
		c-0.5,0-0.9,0-1.3,0c0-0.1,0-0.2,0-0.3c0-0.3,0-0.6,0-0.9c0-0.6-0.3-1-0.9-1.2c-0.6-0.2-1.2-0.2-1.8,0c-0.6,0.2-0.8,0.6-0.9,1.2
		c0,0.5,0,1,0,1.4c0,2.1,0,4.2,0,6.4c0,1.3,0.8,1.5,1.8,1.4c0.7-0.1,1.2-0.6,1.5-1.1c0.1-0.2,0.2-0.4,0.2-0.5
		C71.7,64.5,71.7,63.7,71.7,62.8z"/>
	<path d="M162.9,67.9c-0.4,0-0.8,0-1.2,0c-0.1,0-0.1-0.1-0.2-0.2c-0.2-0.7-0.3-1.4-0.5-2.2c-0.1-0.6,0-0.5-0.6-0.5
		c-0.9,0-1.9,0-2.8,0c-0.2,0-0.3,0.1-0.4,0.3c-0.2,0.8-0.3,1.6-0.5,2.4c0,0.1-0.1,0.2-0.2,0.2c-0.4,0-0.7,0-1.1,0
		c0-0.2,0.1-0.3,0.1-0.5c0.6-2.9,1.3-5.7,1.9-8.6c0.2-1,0.5-2,0.7-3c0-0.2,0.1-0.2,0.3-0.2c0.5,0,1,0,1.5,0c0.2,0,0.3,0.1,0.3,0.2
		c0.3,1.2,0.5,2.4,0.8,3.6c0.6,2.7,1.2,5.5,1.9,8.2C162.9,67.7,162.9,67.8,162.9,67.9z M160.7,63.9c-0.5-2.3-1-4.5-1.5-6.7
		c0,0,0,0-0.1,0c-0.5,2.2-1,4.5-1.5,6.7C158.6,63.9,159.6,63.9,160.7,63.9z"/>
	<path d="M147.8,55.7c0,0.1,0,0.2,0,0.3c0,3.1,0,6.2,0,9.3c0,0.5,0,0.9,0.4,1.3c0.3,0.2,0.6,0.4,0.9,0.4c0.5,0,0.9,0,1.4-0.1
		c0.7-0.2,1-0.6,1.1-1.4c0-0.1,0-0.2,0-0.3c0-3.1,0-6.2,0-9.3c0-0.1,0-0.1,0-0.2c0.4,0,0.8,0,1.2,0c0,0,0.1,0.1,0.1,0.1
		c0,0.1,0,0.2,0,0.2c0,3.1,0,6.1,0,9.2c0,0.3,0,0.7-0.1,1c-0.2,1-0.8,1.6-1.8,1.8c-0.9,0.2-1.9,0.2-2.8-0.1c-1-0.3-1.6-1.1-1.7-2.2
		c0-0.1,0-0.3,0-0.4c0-3.2,0-6.3,0-9.5c0-0.1,0-0.2,0-0.2C147,55.7,147.4,55.7,147.8,55.7z"/>
	<path d="M143.1,59.6c-0.4,0-0.9,0-1.3,0c0-0.1,0-0.2,0-0.3c0-0.5,0-1,0-1.5c0-0.6-0.4-1-1-1.2c-0.6-0.2-1.2-0.2-1.7,0.1
		c-0.5,0.2-0.8,0.6-0.8,1.1c-0.1,0.8,0.1,1.5,0.8,2c1.1,1,2,2,3.1,2.9c1.1,1,1.4,2.3,1,3.7c-0.2,0.7-0.6,1.1-1.3,1.4
		c-0.9,0.4-1.8,0.3-2.8,0.2c-0.4-0.1-0.8-0.2-1.1-0.4c-0.6-0.3-0.9-0.8-1-1.4c-0.1-0.8-0.1-1.5-0.1-2.3c0.5,0,0.9,0,1.3,0
		c0,0.1,0,0.2,0,0.3c0,0.4,0,0.8,0,1.2c0,1,0.5,1.5,1.4,1.6c0.4,0,0.9,0,1.3-0.1c0.6-0.1,1-0.6,1-1.2c0-0.8-0.2-1.4-0.7-2
		c-0.9-0.9-1.8-1.7-2.7-2.6c-0.3-0.3-0.5-0.5-0.8-0.8c-0.7-0.7-0.9-1.5-0.8-2.4c0-0.6,0.1-1.2,0.6-1.6c0.4-0.4,0.9-0.7,1.4-0.8
		c0.8-0.2,1.6-0.2,2.4,0c1,0.3,1.6,0.8,1.8,1.9c0,0.2,0,0.4,0,0.6C143.1,58.5,143.1,59,143.1,59.6z"/>
	<path d="M47.6,55.7c0.4,0,0.9,0,1.3,0c0,0.1,0,0.2,0,0.3c0,3.1,0,6.3,0,9.4c0,0.5,0,0.9,0.4,1.2c0.3,0.2,0.6,0.4,0.9,0.4
		c0.5,0.1,0.9,0.1,1.4,0c0.7-0.2,1.1-0.6,1.1-1.4c0-0.3,0-0.6,0-0.9c0-2.9,0-5.8,0-8.6c0-0.1,0-0.2,0-0.3c0.4,0,0.8,0,1.2,0
		c0,0,0.1,0.1,0.1,0.1c0,0.1,0,0.1,0,0.2c0,3.1,0,6.2,0,9.3c0,0.5,0,1.1-0.3,1.5c-0.3,0.5-0.7,0.9-1.3,1.1c-1.1,0.3-2.2,0.4-3.2,0
		c-1-0.3-1.5-1.1-1.6-2.1c0-0.2,0-0.3,0-0.5c0-3.1,0-6.3,0-9.4C47.6,55.8,47.6,55.8,47.6,55.7z"/>
	<path d="M121.3,55.6c0.4,0,0.8,0,1.2,0c0.1,0,0.1,0.1,0.1,0.2c0.3,1.1,0.5,2.2,0.8,3.3c0.5,2.3,1.1,4.7,1.6,7c0,0,0,0.1,0.1,0.1
		c0.8-3.6,1.6-7.1,2.4-10.6c0.4,0,0.8,0,1.3,0c-0.1,0.3-0.1,0.6-0.2,0.9c-0.8,3.7-1.7,7.4-2.5,11.1c-0.1,0.2-0.1,0.3-0.4,0.3
		c-0.5,0-1,0-1.4,0c-0.2,0-0.2,0-0.3-0.2c-0.6-2.9-1.3-5.7-1.9-8.6C121.8,58,121.6,56.8,121.3,55.6z"/>
	<path d="M82.1,66.8c0,0.3,0,0.6,0,0.9c0,0.2-0.1,0.2-0.2,0.2c-0.7,0-1.3,0-2,0c-1,0-2,0-3.1,0c-0.1,0-0.2,0-0.3,0
		c0-4.1,0-8.2,0-12.3c0.1,0,0.2,0,0.2,0c1.6,0,3.2,0,4.8,0c0.2,0,0.3,0.1,0.3,0.3c0,0.3,0,0.5,0,0.8c-0.1,0-0.2,0-0.3,0
		c-1.1,0-2.3,0-3.4,0c-0.2,0-0.3,0.1-0.3,0.3c0,1.3,0,2.5,0,3.8c0,0.2,0.1,0.3,0.3,0.3c0.9,0,1.8,0,2.7,0c0.2,0,0.3,0.1,0.3,0.3
		c0,0.3,0,0.5,0,0.8c-0.1,0-0.2,0-0.3,0c-0.9,0-1.8,0-2.7,0c-0.2,0-0.3,0.1-0.3,0.3c0,1.3,0,2.7,0,4c0,0.2,0.1,0.3,0.3,0.3
		c1.2,0,2.4,0,3.6,0C81.8,66.8,81.9,66.8,82.1,66.8z"/>
	<path d="M190.9,62.2c-0.1,0-0.2,0-0.3,0c-0.9,0-1.8,0-2.7,0c-0.2,0-0.3,0.1-0.3,0.3c0,1.3,0,2.7,0,4c0,0.2,0.1,0.3,0.3,0.3
		c1.2,0,2.4,0,3.6,0c0.1,0,0.2,0,0.3,0c0,0.4,0,0.7,0,1.1c-1.8,0-3.7,0-5.5,0c0-4.1,0-8.1,0-12.2c0.1,0,0.2,0,0.2,0
		c1.6,0,3.2,0,4.8,0c0.2,0,0.3,0,0.3,0.3c0,0.3,0,0.5,0,0.8c-0.1,0-0.2,0-0.3,0c-1.2,0-2.3,0-3.5,0c-0.2,0-0.3,0.1-0.3,0.3
		c0,1.3,0,2.5,0,3.8c0,0.2,0.1,0.3,0.3,0.3c0.9,0,1.8,0,2.8,0c0.2,0,0.3,0,0.3,0.3C190.9,61.6,190.9,61.9,190.9,62.2z"/>
	<path d="M178.6,66.8c1.7,0,3.3,0,5,0c0,0.3,0,0.7,0,1c0,0.1-0.1,0.1-0.2,0.1c0,0-0.1,0-0.1,0c-2,0-3.9,0-5.9,0c-0.1,0-0.1,0-0.2,0
		c0-0.5-0.1-1.1,0.2-1.6c1.6-3.1,3.1-6.2,4.7-9.3c0-0.1,0.1-0.1,0.1-0.3c-1.6,0-3.2,0-4.8,0c0-0.4,0-0.7,0-1c0,0,0.1-0.1,0.2-0.1
		c0.8,0,1.6,0,2.4,0c1.1,0,2.2,0,3.2,0c0.2,0,0.3,0,0.3,0.3c0,0.6-0.1,1.1-0.4,1.6c-1.5,3-3,6-4.6,9
		C178.7,66.6,178.6,66.6,178.6,66.8z"/>
	<path d="M89.8,56.8c-0.1,0-0.2,0-0.3,0c-0.6,0-1.1,0-1.7,0c-0.4,0-0.4,0-0.4,0.4c0,3.5,0,6.9,0,10.4c0,0.1,0,0.2,0,0.3
		c-0.4,0-0.8,0-1.3,0c0-0.1,0-0.2,0-0.3c0-3.5,0-7,0-10.5c0-0.4,0-0.4-0.4-0.4c-0.7,0-1.4,0-2.1,0c0-0.3,0-0.7,0-1
		c0,0,0.1-0.1,0.1-0.1c0,0,0.1,0,0.2,0c1.9,0,3.8,0,5.7,0c0.2,0,0.3,0.1,0.3,0.3C89.8,56.2,89.8,56.4,89.8,56.8z"/>
	<path d="M130.9,66.8c0.3,0,0.5,0,0.8,0c0.1,0,0.1-0.1,0.2-0.2c0,0,0-0.1,0-0.2c0-3.1,0-6.2,0-9.3c0-0.4,0-0.4-0.4-0.4
		c-0.2,0-0.4,0-0.6,0c0-0.4,0-0.7,0-1c0,0,0.1-0.1,0.2-0.1c1,0,1.9,0,2.9,0c0.1,0,0.2,0.1,0.2,0.2c0,0.3,0,0.6,0,0.9
		c-0.2,0-0.4,0-0.6,0c-0.3,0-0.3,0.1-0.3,0.3c0,1.2,0,2.3,0,3.5c0,2,0,3.9,0,5.9c0,0.2,0.1,0.3,0.3,0.3c0.2,0,0.4,0,0.6,0
		c0,0.4,0,0.7,0,1c0,0-0.1,0.1-0.2,0.1c-0.9,0-1.9,0-2.8,0c-0.1,0-0.2-0.1-0.2-0.1C130.9,67.4,130.9,67.1,130.9,66.8z"/>
	<path d="M94.9,66.8c0,0.3,0,0.7,0,1c0,0.1-0.1,0.1-0.2,0.1c-1,0-1.9,0-2.9,0c-0.1,0-0.2-0.1-0.2-0.1c0-0.3,0-0.6,0-1
		c0.2,0,0.4,0,0.7,0c0.2,0,0.3-0.1,0.3-0.3c0-1.2,0-2.4,0-3.6c0-1.9,0-3.9,0-5.8c0-0.2-0.1-0.3-0.3-0.3c-0.2,0-0.4,0-0.7,0
		c0-0.4,0-0.7,0-1c0,0,0.1-0.1,0.2-0.1c0.9,0,1.9,0,2.8,0c0.1,0,0.2,0.1,0.2,0.1c0,0.3,0,0.6,0,1c-0.1,0-0.2,0-0.3,0
		c-0.6,0-0.6,0-0.6,0.6c0,1.9,0,3.7,0,5.6c0,1.2,0,2.3,0,3.5c0,0.2,0.1,0.3,0.3,0.3C94.5,66.8,94.7,66.8,94.9,66.8z"/>
	<path d="M165.6,55.6c0.4,0,0.8,0,1.3,0c0,0.1,0,0.2,0,0.3c0,3.5,0,7,0,10.5c0,0.4,0,0.4,0.3,0.4c0.9,0,1.9,0,2.8,0
		c0.1,0,0.2,0,0.3,0c0,0.4,0,0.7,0,1.1c-1.6,0-3.1,0-4.7,0C165.6,63.8,165.6,59.7,165.6,55.6z"/>
	<path d="M172,66.8c0.3,0,0.5,0,0.8,0c0.1,0,0.2-0.1,0.2-0.2c0-0.1,0-0.1,0-0.2c0-3.1,0-6.2,0-9.3c0-0.3,0-0.3-0.3-0.3
		c-0.2,0-0.4,0-0.6,0c0-0.3,0-0.7,0-1c0,0,0.1-0.1,0.2-0.1c1,0,1.9,0,2.9,0c0.1,0,0.2,0.1,0.2,0.2c0,0.3,0,0.6,0,0.9
		c-0.3,0-0.5,0-0.7,0c-0.2,0-0.2,0.1-0.2,0.2c0,3.2,0,6.4,0,9.6c0,0.2,0.1,0.2,0.2,0.2c0.2,0,0.5,0,0.7,0c0,0.3,0,0.7,0,1
		c0,0.1-0.1,0.1-0.2,0.1c-1,0-1.9,0-2.9,0c-0.1,0-0.2-0.1-0.2-0.1C172,67.4,172,67.1,172,66.8z"/>
</g>
</svg>
