<?xml version="1.0" encoding="utf-8"?>
<!-- Generator: Adobe Illustrator 23.0.4, SVG Export Plug-In . SVG Version: 6.00 Build 0)  -->
<svg version="1.1" id="Layer_1" xmlns="http://www.w3.org/2000/svg" xmlns:xlink="http://www.w3.org/1999/xlink" x="0px" y="0px"
	 viewBox="0 0 249 82.5" style="enable-background:new 0 0 249 82.5;" xml:space="preserve">
<style type="text/css">
	.st0{fill:#FF7300;}
	.st1{font-family:'ScriptoramaJF-Tradeshow';}
	.st2{font-size:45.5225px;}
</style>
<title>NolaBooksLogoBlackText</title>
<text transform="matrix(0.98 0 0 1 8.7744 50.4429)" class="st0 st1 st2">No</text>
<text transform="matrix(0.98 0 0 1 61.3271 50.4429)" class="st0 st1 st2">l</text>
<text transform="matrix(0.98 0 0 1 73.1934 50.4429)" class="st0 st1 st2">aBooks</text>
<path class="st0" d="M221.7,11.5c2.1-0.2,4.1,0.1,5.5,1.9c0.4,0.6,0.8,1.2,1,1.8c3.7,8.7,7.4,17.4,11,26.1c0.1,0.2,0.3,0.5,0.3,0.7
	c-0.1,0.5-0.3,1.1-0.6,1.5c-0.5,0.4-1.1,0.3-1.5-0.1c0-0.1-0.1-0.1-0.1-0.2c-0.2-0.3-0.4-0.7-0.6-1.1l-11-25.9
	c-0.9-2.2-2.2-2.7-4.4-1.7l-25.4,10.8c-2.2,0.9-2.7,2.2-1.7,4.3c5,11.7,9.9,23.5,14.9,35.2c0.9,2.2,2.2,2.7,4.3,1.8L238.9,56
	c2.2-0.9,2.7-2.2,1.8-4.3c-0.3-0.7-0.6-1.4-0.9-2.1c-0.3-0.7-0.1-1.5,0.6-1.8c0,0,0.1,0,0.1-0.1c0.6-0.3,1.4-0.1,1.7,0.6
	c0,0.1,0.1,0.2,0.1,0.3c0.4,0.9,0.7,1.7,1.1,2.6c1,2.3,0.3,4.9-1.7,6.4c-0.1,0.1-0.3,0.3-0.4,0.4l-28.2,12c-0.1,0-0.3-0.1-0.4-0.1
	c-2.5,0.5-5-0.8-5.9-3.2c-5.2-12.1-10.3-24.3-15.4-36.4c-0.6-1.3-0.6-2.9,0.1-4.2c0.6-0.9,1.3-1.7,2-2.5L221.7,11.5z"/>
<path class="st0" d="M215.7,36.8l-9.6,4.1c-2.2,0.9-3.6,0.4-4.5-1.8s-1.9-4.5-2.8-6.7c-0.8-1.4-0.3-3.2,1.1-4
	c0.2-0.1,0.4-0.2,0.6-0.2c6.6-2.8,13.2-5.6,19.9-8.4c1.4-0.8,3.2-0.2,4,1.2c0.1,0.2,0.2,0.4,0.2,0.5c1,2.3,2,4.6,2.9,6.9
	c0.8,1.4,0.2,3.2-1.2,4c-0.2,0.1-0.4,0.2-0.5,0.2C222.3,34,219,35.4,215.7,36.8z M221.8,22.2l-20.6,8.7l3.2,7.7l1.3-0.5l14.9-6.3
	c1.2-0.5,2.4-1,3.6-1.6c0.3-0.1,0.6-0.7,0.5-0.9C223.8,27,222.8,24.6,221.8,22.2L221.8,22.2z"/>
<path class="st0" d="M224.7,38.8c0.2-0.7,0.4-1.4,0.7-2.1c0.4-0.8,1.1-1.1,1.7-0.6c0.4,0.4,0.7,1,0.7,1.6c-0.2,0.6-0.5,1.2-0.9,1.7
	l0.2,0.5c0.5,0.1,1.1,0.2,1.6,0.4c0.7,0.1,1.2,0.8,1,1.5c0,0.1-0.1,0.2-0.1,0.3c-0.4,0.9-1.1,1-1.9,0.7c-0.5-0.2-1-0.5-1.8-0.9
	c-0.2,0.7-0.4,1.4-0.6,2.1c-0.2,0.6-0.9,1-1.5,0.8c0,0-0.1,0-0.1-0.1c-0.7-0.2-1.1-0.8-0.9-1.5c0-0.1,0-0.1,0.1-0.2
	c0.3-0.7,0.6-1.3,1-2c-0.7-0.2-1.3-0.4-2-0.6c-0.7-0.2-1.1-0.9-0.9-1.6c0-0.1,0.1-0.2,0.1-0.2c0.2-0.6,0.9-1,1.6-0.7
	c0.1,0,0.1,0.1,0.2,0.1C223.4,38,223.9,38.3,224.7,38.8z"/>
<path class="st0" d="M218.1,57.9c0.3,0.7,0.5,1.2,0.7,1.7c0.3,0.6,0.1,1.3-0.4,1.7c-0.1,0-0.2,0.1-0.2,0.1c-0.6,0.3-1.4,0.1-1.7-0.5
	c0-0.1-0.1-0.1-0.1-0.2c-0.3-0.5-0.5-1.1-0.7-1.8c-0.6,0.3-1.1,0.5-1.7,0.7c-0.6,0.3-1.5,0.1-1.8-0.5c0-0.1-0.1-0.1-0.1-0.2
	c-0.3-0.6-0.1-1.4,0.6-1.7c0.1,0,0.2-0.1,0.3-0.1l1.7-0.7c-0.3-0.6-0.5-1.1-0.7-1.7c-0.4-0.6-0.2-1.4,0.5-1.8c0.1,0,0.1-0.1,0.2-0.1
	c0.6-0.3,1.4-0.1,1.7,0.5c0,0.1,0.1,0.2,0.1,0.3v0.1c0.8,1.6,0.7,1.5,2.3,1c0.4-0.2,0.8-0.2,1.3-0.1c0.4,0.2,0.8,0.7,0.8,1.1
	c-0.1,0.5-0.3,1-0.8,1.3C219.4,57.5,218.8,57.7,218.1,57.9z"/>
<path class="st0" d="M212.1,47.3c-1,0.4-1.9,0.8-2.9,1.2c-0.6,0.4-1.4,0.1-1.8-0.5c0-0.1-0.1-0.1-0.1-0.2c-0.3-0.6-0.1-1.4,0.6-1.8
	c0.1,0,0.1-0.1,0.2-0.1c1.9-0.8,3.9-1.7,5.9-2.5c0.6-0.4,1.4-0.2,1.8,0.5c0,0.1,0.1,0.1,0.1,0.2c0.4,0.9-0.1,1.5-0.9,1.9
	S213.1,46.9,212.1,47.3z"/>
<path class="st0" d="M230.5,52l2.8-1.2c0.6-0.4,1.4-0.2,1.8,0.4c0,0.1,0.1,0.1,0.1,0.2c0.3,0.6,0.1,1.4-0.5,1.7
	c-0.1,0-0.2,0.1-0.3,0.1l-5.9,2.5c-0.6,0.4-1.4,0.2-1.7-0.4c-0.1-0.1-0.1-0.2-0.1-0.3c-0.3-0.6-0.1-1.4,0.5-1.7
	c0.1-0.1,0.2-0.1,0.3-0.1L230.5,52z"/>
<path class="st0" d="M229.7,50.7c-1,0.4-2,0.9-3,1.3c-0.7,0.3-1.5,0-1.8-0.7s0-1.5,0.7-1.8c2-0.9,4.1-1.8,6.2-2.6
	c0.6-0.3,1.4,0,1.6,0.6c0,0.1,0.1,0.1,0.1,0.2c0.3,0.6,0,1.3-0.6,1.6c0,0-0.1,0-0.1,0.1C231.8,49.8,230.8,50.2,229.7,50.7
	L229.7,50.7z"/>
<g>
	<path class="st0" d="M94.2,55.6c0.4,0,0.8,0,1.2,0c0.1,0,0.2,0.1,0.2,0.2c0.5,1.2,1,2.4,1.5,3.5c0.8,1.8,1.5,3.5,2.3,5.3
		c0,0.1,0.1,0.1,0.2,0.2c0-0.1,0-0.2,0-0.2c0-2.9,0-5.8,0-8.7c0-0.3,0.1-0.3,0.3-0.3c0.3,0,0.5,0,0.8,0c0.1,0,0.2,0,0.2,0.2
		c0,0.1,0,0.1,0,0.2c0,3.8,0,7.7,0,11.5c0,0.4,0,0.4-0.4,0.4c-0.3,0-0.7,0.1-0.9-0.1c-0.2-0.1-0.3-0.5-0.4-0.8
		c-1.2-2.7-2.4-5.4-3.5-8.2c0-0.1-0.1-0.2-0.2-0.2c0,3.1,0,6.2,0,9.2c-0.4,0-0.9,0-1.3,0C94.2,63.8,94.2,59.7,94.2,55.6z"/>
	<path class="st0" d="M34.3,55.7c1.1,0,2.2,0,3.3,0c0.8,0,1.5,0.3,1.9,0.9c0.2,0.3,0.4,0.7,0.5,1.1c0.1,0.8,0.1,1.5,0,2.3
		c0,0.7-0.5,1.1-1.1,1.4h-0.1c0,0,0,0,0,0.1c0.1,0.1,0.3,0.1,0.4,0.2c0.5,0.2,0.9,0.7,1,1.2c0.1,1.1,0.2,2.2,0,3.2
		c-0.2,0.9-0.8,1.4-1.7,1.6c-0.3,0.1-0.7,0.1-1,0.1c-1,0-2.1,0-3.1,0c0,0,0,0-0.1,0C34.3,63.8,34.3,59.7,34.3,55.7z M35.5,64.4
		c0,0.7,0,1.4,0,2.2c0,0.1,0,0.3,0.2,0.3c0.6,0,1.2,0,1.8,0c0.8,0,1.4-0.6,1.4-1.4c0-0.6,0-1.3,0-1.9c0-0.7-0.7-1.4-1.4-1.4
		c-0.6,0-1.2,0-1.7,0c-0.2,0-0.3,0.1-0.3,0.3C35.5,62.9,35.5,63.6,35.5,64.4z M35.5,58.9c0,0.6,0,1.3,0,1.9c0,0.2,0,0.3,0.2,0.3
		c0.4,0,0.9,0,1.3,0c1,0,1.7-0.7,1.7-1.7c0-0.3,0-0.6,0-0.9c0-1-0.6-1.6-1.6-1.6c-0.4,0-0.9,0-1.3,0c-0.2,0-0.3,0.1-0.3,0.3
		C35.6,57.7,35.5,58.3,35.5,58.9z"/>
	<path class="st0" d="M53.6,55.7C53.6,55.6,53.6,55.6,53.6,55.7c1.2,0,2.4,0,3.5,0c0.7,0,1.4,0.3,1.9,0.9c0.3,0.4,0.5,0.8,0.5,1.3
		c0,2.4,0,4.9,0,7.3c0,0.6-0.1,1.2-0.5,1.7s-1,0.9-1.6,0.9c-1.3,0.1-2.6,0.1-3.9,0.1C53.6,63.8,53.6,59.7,53.6,55.7z M54.9,61.7
		c0,1.6,0,3.1,0,4.7c0,0.3,0,0.3,0.3,0.3c0.5,0,1,0,1.5,0c1,0,1.6-0.6,1.6-1.6c0-2.2,0-4.4,0-6.7c0-1.1-0.6-1.7-1.7-1.7
		c-0.5,0-0.9,0-1.4,0c-0.3,0-0.3,0.1-0.3,0.3C54.9,58.6,54.9,60.2,54.9,61.7z"/>
	<path class="st0" d="M197.2,67.9c-0.5,0-0.9,0-1.3,0c-0.1,0-0.2-0.1-0.2-0.2c-0.7-1.3-1.3-2.6-2-3.9c-0.1-0.2-0.2-0.2-0.4-0.2
		c-0.4,0-0.8,0-1.3,0c0,1.4,0,2.9,0,4.3c-0.4,0-0.9,0-1.3,0c0-4.1,0-8.1,0-12.2c0.2,0,0.3,0,0.5,0c0.9,0,1.9,0,2.8,0
		c0.8,0,1.4,0.3,1.9,0.9c0.3,0.4,0.5,0.9,0.5,1.4c0,1.1,0,2.2,0,3.3c0,0.9-0.5,1.6-1.4,2c-0.1,0-0.1,0.1-0.3,0.1
		C195.7,64.9,196.4,66.4,197.2,67.9z M192,59.6c0,0.9,0,1.7,0,2.6c0,0.2,0.1,0.3,0.3,0.3c0.5,0,1,0,1.5,0c1,0,1.5-0.5,1.5-1.5
		c0-0.9,0-1.8,0-2.6c0-1-0.6-1.5-1.6-1.5c-0.5,0-0.9,0-1.4,0c-0.2,0-0.3,0.1-0.3,0.3C192,57.9,192,58.7,192,59.6z"/>
	<path class="st0" d="M110.6,59c-0.5,0-0.9,0-1.3,0c0-0.1,0-0.2,0-0.3c0-0.3,0-0.6,0-0.9c0-0.7-0.3-1.1-0.9-1.3s-1.2-0.2-1.8,0
		c-0.5,0.2-0.8,0.5-0.8,1.1c0,0.1,0,0.3,0,0.4c0,2.5,0,4.9,0,7.4c0,0.2,0,0.5,0.1,0.7c0.1,0.5,0.4,0.7,0.9,0.8
		c1.3,0.2,2.3-0.7,2.6-1.6c0-0.1,0-0.1,0-0.2c0-0.8,0-1.6,0-2.4c-0.1,0-0.2,0-0.3,0c-0.5,0-1.1,0-1.6,0c-0.2,0-0.2,0-0.2-0.2
		s0-0.5,0-0.7c0-0.1,0.1-0.2,0.2-0.2c1,0,2,0,3,0c0.2,0,0.2,0.1,0.2,0.2c0,1.9,0,3.9,0,5.8c0,0.1-0.1,0.2-0.1,0.2
		c-0.2,0-0.4,0.1-0.5-0.1s-0.2-0.4-0.3-0.6c-0.1-0.1-0.1-0.3-0.2-0.4c-0.2,0.3-0.4,0.5-0.6,0.7c-0.5,0.5-1,0.7-1.7,0.7
		c-0.5,0-0.9,0-1.4-0.2c-0.9-0.3-1.3-1-1.4-1.9c0-0.3-0.1-0.6-0.1-0.9c0-2.3,0-4.6,0-6.9c0-0.3,0-0.7,0.1-1c0.2-0.9,0.8-1.5,1.7-1.7
		c1-0.2,1.9-0.3,2.9,0.1c0.9,0.3,1.4,1,1.5,1.9C110.6,58,110.6,58.5,110.6,59z"/>
	<path class="st0" d="M67.7,62.8c-0.6,0-1.2,0-1.8,0c-0.2,0-0.3,0-0.3-0.3c0-0.2,0-0.4,0-0.7c0-0.1,0.1-0.2,0.2-0.2c1,0,2,0,3,0
		c0.2,0,0.2,0.1,0.2,0.2c0,1.1,0,2.1,0,3.2c0,0.8,0,1.7,0,2.5c0,0.1-0.1,0.3-0.1,0.3c-0.2,0-0.4,0.1-0.5-0.2c-0.1-0.3-0.3-0.6-0.4-1
		c-0.2,0.3-0.4,0.5-0.6,0.7c-0.5,0.5-1,0.7-1.7,0.7c-0.5,0-1,0-1.5-0.2c-0.8-0.3-1.2-1-1.3-1.8c0-0.4-0.1-0.7-0.1-1.1
		c0-2.3,0-4.6,0-6.9c0-0.3,0-0.6,0.1-0.9c0.2-0.9,0.8-1.5,1.7-1.7c1-0.3,2-0.3,2.9,0.1c0.8,0.3,1.3,1,1.4,1.9c0,0.5,0.1,1,0.1,1.5
		c-0.5,0-0.9,0-1.3,0c0-0.1,0-0.2,0-0.3c0-0.3,0-0.6,0-0.9c0-0.6-0.3-1-0.9-1.2s-1.2-0.2-1.8,0c-0.6,0.2-0.8,0.6-0.9,1.2
		c0,0.5,0,1,0,1.4c0,2.1,0,4.2,0,6.4c0,1.3,0.8,1.5,1.8,1.4c0.7-0.1,1.2-0.6,1.5-1.1c0.1-0.2,0.2-0.4,0.2-0.5
		C67.7,64.5,67.7,63.7,67.7,62.8z"/>
	<path class="st0" d="M158.9,67.9c-0.4,0-0.8,0-1.2,0c-0.1,0-0.1-0.1-0.2-0.2c-0.2-0.7-0.3-1.4-0.5-2.2c-0.1-0.6,0-0.5-0.6-0.5
		c-0.9,0-1.9,0-2.8,0c-0.2,0-0.3,0.1-0.4,0.3c-0.2,0.8-0.3,1.6-0.5,2.4c0,0.1-0.1,0.2-0.2,0.2c-0.4,0-0.7,0-1.1,0
		c0-0.2,0.1-0.3,0.1-0.5c0.6-2.9,1.3-5.7,1.9-8.6c0.2-1,0.5-2,0.7-3c0-0.2,0.1-0.2,0.3-0.2c0.5,0,1,0,1.5,0c0.2,0,0.3,0.1,0.3,0.2
		c0.3,1.2,0.5,2.4,0.8,3.6c0.6,2.7,1.2,5.5,1.9,8.2C158.9,67.7,158.9,67.8,158.9,67.9z M156.7,63.9c-0.5-2.3-1-4.5-1.5-6.7
		c0,0,0,0-0.1,0c-0.5,2.2-1,4.5-1.5,6.7C154.6,63.9,155.6,63.9,156.7,63.9z"/>
	<path class="st0" d="M143.8,55.7c0,0.1,0,0.2,0,0.3c0,3.1,0,6.2,0,9.3c0,0.5,0,0.9,0.4,1.3c0.3,0.2,0.6,0.4,0.9,0.4
		c0.5,0,0.9,0,1.4-0.1c0.7-0.2,1-0.6,1.1-1.4c0-0.1,0-0.2,0-0.3c0-3.1,0-6.2,0-9.3c0-0.1,0-0.1,0-0.2c0.4,0,0.8,0,1.2,0l0.1,0.1
		c0,0.1,0,0.2,0,0.2c0,3.1,0,6.1,0,9.2c0,0.3,0,0.7-0.1,1c-0.2,1-0.8,1.6-1.8,1.8c-0.9,0.2-1.9,0.2-2.8-0.1c-1-0.3-1.6-1.1-1.7-2.2
		c0-0.1,0-0.3,0-0.4c0-3.2,0-6.3,0-9.5c0-0.1,0-0.2,0-0.2C143,55.7,143.4,55.7,143.8,55.7z"/>
	<path class="st0" d="M139.1,59.6c-0.4,0-0.9,0-1.3,0c0-0.1,0-0.2,0-0.3c0-0.5,0-1,0-1.5c0-0.6-0.4-1-1-1.2s-1.2-0.2-1.7,0.1
		c-0.5,0.2-0.8,0.6-0.8,1.1c-0.1,0.8,0.1,1.5,0.8,2c1.1,1,2,2,3.1,2.9c1.1,1,1.4,2.3,1,3.7c-0.2,0.7-0.6,1.1-1.3,1.4
		c-0.9,0.4-1.8,0.3-2.8,0.2c-0.4-0.1-0.8-0.2-1.1-0.4c-0.6-0.3-0.9-0.8-1-1.4c-0.1-0.8-0.1-1.5-0.1-2.3c0.5,0,0.9,0,1.3,0
		c0,0.1,0,0.2,0,0.3c0,0.4,0,0.8,0,1.2c0,1,0.5,1.5,1.4,1.6c0.4,0,0.9,0,1.3-0.1c0.6-0.1,1-0.6,1-1.2c0-0.8-0.2-1.4-0.7-2
		c-0.9-0.9-1.8-1.7-2.7-2.6c-0.3-0.3-0.5-0.5-0.8-0.8c-0.7-0.7-0.9-1.5-0.8-2.4c0-0.6,0.1-1.2,0.6-1.6c0.4-0.4,0.9-0.7,1.4-0.8
		c0.8-0.2,1.6-0.2,2.4,0c1,0.3,1.6,0.8,1.8,1.9c0,0.2,0,0.4,0,0.6C139.1,58.5,139.1,59,139.1,59.6z"/>
	<path class="st0" d="M43.6,55.7c0.4,0,0.9,0,1.3,0c0,0.1,0,0.2,0,0.3c0,3.1,0,6.3,0,9.4c0,0.5,0,0.9,0.4,1.2
		c0.3,0.2,0.6,0.4,0.9,0.4c0.5,0.1,0.9,0.1,1.4,0c0.7-0.2,1.1-0.6,1.1-1.4c0-0.3,0-0.6,0-0.9c0-2.9,0-5.8,0-8.6c0-0.1,0-0.2,0-0.3
		c0.4,0,0.8,0,1.2,0l0.1,0.1c0,0.1,0,0.1,0,0.2c0,3.1,0,6.2,0,9.3c0,0.5,0,1.1-0.3,1.5c-0.3,0.5-0.7,0.9-1.3,1.1
		c-1.1,0.3-2.2,0.4-3.2,0c-1-0.3-1.5-1.1-1.6-2.1c0-0.2,0-0.3,0-0.5c0-3.1,0-6.3,0-9.4C43.6,55.8,43.6,55.8,43.6,55.7z"/>
	<path class="st0" d="M117.3,55.6c0.4,0,0.8,0,1.2,0c0.1,0,0.1,0.1,0.1,0.2c0.3,1.1,0.5,2.2,0.8,3.3c0.5,2.3,1.1,4.7,1.6,7
		c0,0,0,0.1,0.1,0.1c0.8-3.6,1.6-7.1,2.4-10.6c0.4,0,0.8,0,1.3,0c-0.1,0.3-0.1,0.6-0.2,0.9c-0.8,3.7-1.7,7.4-2.5,11.1
		c-0.1,0.2-0.1,0.3-0.4,0.3c-0.5,0-1,0-1.4,0c-0.2,0-0.2,0-0.3-0.2c-0.6-2.9-1.3-5.7-1.9-8.6C117.8,58,117.6,56.8,117.3,55.6z"/>
	<path class="st0" d="M78.1,66.8c0,0.3,0,0.6,0,0.9c0,0.2-0.1,0.2-0.2,0.2c-0.7,0-1.3,0-2,0c-1,0-2,0-3.1,0c-0.1,0-0.2,0-0.3,0
		c0-4.1,0-8.2,0-12.3c0.1,0,0.2,0,0.2,0c1.6,0,3.2,0,4.8,0c0.2,0,0.3,0.1,0.3,0.3c0,0.3,0,0.5,0,0.8c-0.1,0-0.2,0-0.3,0
		c-1.1,0-2.3,0-3.4,0c-0.2,0-0.3,0.1-0.3,0.3c0,1.3,0,2.5,0,3.8c0,0.2,0.1,0.3,0.3,0.3c0.9,0,1.8,0,2.7,0c0.2,0,0.3,0.1,0.3,0.3
		c0,0.3,0,0.5,0,0.8c-0.1,0-0.2,0-0.3,0c-0.9,0-1.8,0-2.7,0c-0.2,0-0.3,0.1-0.3,0.3c0,1.3,0,2.7,0,4c0,0.2,0.1,0.3,0.3,0.3
		c1.2,0,2.4,0,3.6,0C77.8,66.8,77.9,66.8,78.1,66.8z"/>
	<path class="st0" d="M186.9,62.2c-0.1,0-0.2,0-0.3,0c-0.9,0-1.8,0-2.7,0c-0.2,0-0.3,0.1-0.3,0.3c0,1.3,0,2.7,0,4
		c0,0.2,0.1,0.3,0.3,0.3c1.2,0,2.4,0,3.6,0c0.1,0,0.2,0,0.3,0c0,0.4,0,0.7,0,1.1c-1.8,0-3.7,0-5.5,0c0-4.1,0-8.1,0-12.2
		c0.1,0,0.2,0,0.2,0c1.6,0,3.2,0,4.8,0c0.2,0,0.3,0,0.3,0.3s0,0.5,0,0.8c-0.1,0-0.2,0-0.3,0c-1.2,0-2.3,0-3.5,0
		c-0.2,0-0.3,0.1-0.3,0.3c0,1.3,0,2.5,0,3.8c0,0.2,0.1,0.3,0.3,0.3c0.9,0,1.8,0,2.8,0c0.2,0,0.3,0,0.3,0.3
		C186.9,61.6,186.9,61.9,186.9,62.2z"/>
	<path class="st0" d="M174.6,66.8c1.7,0,3.3,0,5,0c0,0.3,0,0.7,0,1c0,0.1-0.1,0.1-0.2,0.1h-0.1c-2,0-3.9,0-5.9,0c-0.1,0-0.1,0-0.2,0
		c0-0.5-0.1-1.1,0.2-1.6c1.6-3.1,3.1-6.2,4.7-9.3c0-0.1,0.1-0.1,0.1-0.3c-1.6,0-3.2,0-4.8,0c0-0.4,0-0.7,0-1c0,0,0.1-0.1,0.2-0.1
		c0.8,0,1.6,0,2.4,0c1.1,0,2.2,0,3.2,0c0.2,0,0.3,0,0.3,0.3c0,0.6-0.1,1.1-0.4,1.6c-1.5,3-3,6-4.6,9
		C174.7,66.6,174.6,66.6,174.6,66.8z"/>
	<path class="st0" d="M85.8,56.8c-0.1,0-0.2,0-0.3,0c-0.6,0-1.1,0-1.7,0c-0.4,0-0.4,0-0.4,0.4c0,3.5,0,6.9,0,10.4c0,0.1,0,0.2,0,0.3
		c-0.4,0-0.8,0-1.3,0c0-0.1,0-0.2,0-0.3c0-3.5,0-7,0-10.5c0-0.4,0-0.4-0.4-0.4c-0.7,0-1.4,0-2.1,0c0-0.3,0-0.7,0-1l0.1-0.1
		c0,0,0.1,0,0.2,0c1.9,0,3.8,0,5.7,0c0.2,0,0.3,0.1,0.3,0.3C85.8,56.2,85.8,56.4,85.8,56.8z"/>
	<path class="st0" d="M126.9,66.8c0.3,0,0.5,0,0.8,0c0.1,0,0.1-0.1,0.2-0.2c0,0,0-0.1,0-0.2c0-3.1,0-6.2,0-9.3c0-0.4,0-0.4-0.4-0.4
		c-0.2,0-0.4,0-0.6,0c0-0.4,0-0.7,0-1c0,0,0.1-0.1,0.2-0.1c1,0,1.9,0,2.9,0c0.1,0,0.2,0.1,0.2,0.2c0,0.3,0,0.6,0,0.9
		c-0.2,0-0.4,0-0.6,0c-0.3,0-0.3,0.1-0.3,0.3c0,1.2,0,2.3,0,3.5c0,2,0,3.9,0,5.9c0,0.2,0.1,0.3,0.3,0.3s0.4,0,0.6,0c0,0.4,0,0.7,0,1
		c0,0-0.1,0.1-0.2,0.1c-0.9,0-1.9,0-2.8,0c-0.1,0-0.2-0.1-0.2-0.1C126.9,67.4,126.9,67.1,126.9,66.8z"/>
	<path class="st0" d="M90.9,66.8c0,0.3,0,0.7,0,1c0,0.1-0.1,0.1-0.2,0.1c-1,0-1.9,0-2.9,0c-0.1,0-0.2-0.1-0.2-0.1c0-0.3,0-0.6,0-1
		c0.2,0,0.4,0,0.7,0c0.2,0,0.3-0.1,0.3-0.3c0-1.2,0-2.4,0-3.6c0-1.9,0-3.9,0-5.8c0-0.2-0.1-0.3-0.3-0.3c-0.2,0-0.4,0-0.7,0
		c0-0.4,0-0.7,0-1c0,0,0.1-0.1,0.2-0.1c0.9,0,1.9,0,2.8,0c0.1,0,0.2,0.1,0.2,0.1c0,0.3,0,0.6,0,1c-0.1,0-0.2,0-0.3,0
		c-0.6,0-0.6,0-0.6,0.6c0,1.9,0,3.7,0,5.6c0,1.2,0,2.3,0,3.5c0,0.2,0.1,0.3,0.3,0.3C90.5,66.8,90.7,66.8,90.9,66.8z"/>
	<path class="st0" d="M161.6,55.6c0.4,0,0.8,0,1.3,0c0,0.1,0,0.2,0,0.3c0,3.5,0,7,0,10.5c0,0.4,0,0.4,0.3,0.4c0.9,0,1.9,0,2.8,0
		c0.1,0,0.2,0,0.3,0c0,0.4,0,0.7,0,1.1c-1.6,0-3.1,0-4.7,0C161.6,63.8,161.6,59.7,161.6,55.6z"/>
	<path class="st0" d="M168,66.8c0.3,0,0.5,0,0.8,0c0.1,0,0.2-0.1,0.2-0.2s0-0.1,0-0.2c0-3.1,0-6.2,0-9.3c0-0.3,0-0.3-0.3-0.3
		c-0.2,0-0.4,0-0.6,0c0-0.3,0-0.7,0-1c0,0,0.1-0.1,0.2-0.1c1,0,1.9,0,2.9,0c0.1,0,0.2,0.1,0.2,0.2c0,0.3,0,0.6,0,0.9
		c-0.3,0-0.5,0-0.7,0s-0.2,0.1-0.2,0.2c0,3.2,0,6.4,0,9.6c0,0.2,0.1,0.2,0.2,0.2c0.2,0,0.5,0,0.7,0c0,0.3,0,0.7,0,1
		c0,0.1-0.1,0.1-0.2,0.1c-1,0-1.9,0-2.9,0c-0.1,0-0.2-0.1-0.2-0.1C168,67.4,168,67.1,168,66.8z"/>
</g>
</svg>
